<svg width="32" height="32" viewBox="0 0 32 32" fill="none" xmlns="http://www.w3.org/2000/svg">
<path d="M20 0C26.6274 0 32 5.37258 32 12V20C32 26.6274 26.6274 32 20 32H12C5.37258 32 0 26.6274 0 20V12C0 5.37258 5.37258 0 12 0H20ZM11.333 9.33301C10.2287 9.33318 9.33318 10.2287 9.33301 11.333V20.667C9.33318 21.7713 10.2287 22.6668 11.333 22.667H20.667C21.7713 22.6668 22.6668 21.7713 22.667 20.667V11.333C22.6668 10.2287 21.7713 9.33318 20.667 9.33301H11.333ZM12 16C12.3822 16 12.7082 16.1444 12.8877 16.3594C12.9147 16.3918 12.9449 16.4225 12.9775 16.4492L13.6914 17.0322C15.0098 18.321 17.0554 18.3206 18.374 17.0322L19.0889 16.4492C19.1059 16.4353 19.1221 16.4199 19.1377 16.4043C19.3662 16.1759 19.7367 16.0001 20.0664 16H21.333V20.667C21.3328 21.0349 21.0349 21.3328 20.667 21.333H11.333C10.9651 21.3328 10.6672 21.0349 10.667 20.667V16H12ZM20.667 13.334C20.8437 13.3341 21.0127 13.4043 21.1377 13.5293C21.2625 13.6542 21.3329 13.8234 21.333 14V14.666H20.0664C19.3558 14.6661 18.6841 15.0003 18.2441 15.417L17.5107 16.0166C17.4937 16.0306 17.4775 16.0459 17.4619 16.0615C16.6556 16.8678 15.4108 16.8678 14.6045 16.0615L14.5557 16.0166L13.8613 15.4492C13.3743 14.9055 12.6611 14.666 12 14.666H10.667V14C10.6671 13.8234 10.7375 13.6542 10.8623 13.5293C10.9873 13.4043 11.1563 13.3341 11.333 13.334H20.667ZM20.667 10.667C21.0349 10.6672 21.3328 10.9651 21.333 11.333V12.1162C21.1208 12.0411 20.8963 12 20.667 12H11.333C11.1037 12 10.8792 12.0411 10.667 12.1162V11.333C10.6672 10.9651 10.9651 10.6672 11.333 10.667H20.667Z" fill="currentColor"/>
</svg>
